<?xml version="1.0" encoding="UTF-8"?>
<svg xmlns="http://www.w3.org/2000/svg" xmlns:xlink="http://www.w3.org/1999/xlink" width="250px" height="188px" viewBox="0 0 250 188" version="1.1">
<g id="surface1">
<path style=" stroke:none;fill-rule:nonzero;fill:rgb(0%,0%,0%);fill-opacity:1;" d="M 225.984375 85.980469 C 221.472656 81.574219 215.46875 78.050781 208.527344 75.714844 C 207.546875 58.050781 205.753906 44.597656 203.207031 35.738281 C 202.460938 33.140625 199.617188 24.273438 194.472656 19.289062 C 183.925781 9.078125 170.304688 9.671875 150.457031 21.269531 C 128.851562 14.441406 112.175781 15.851562 101.898438 18.285156 C 89.726562 21.171875 79.652344 27.117188 74.949219 34.191406 C 69.777344 41.96875 65.707031 58.148438 62.84375 82.273438 C 55.070312 86.375 47.746094 91.289062 41 96.929688 C 24.648438 110.714844 16.003906 126.378906 16.003906 142.230469 C 16.003906 150.855469 19.40625 158.089844 26.113281 163.734375 C 35.558594 171.679688 51.394531 176.246094 73.171875 177.296875 C 76.359375 177.453125 79.660156 177.527344 83.074219 177.527344 C 100.078125 177.527344 119.738281 175.625 140.59375 171.933594 C 170.21875 166.691406 194.542969 157.53125 210.9375 145.433594 C 226.519531 133.9375 234.753906 120.1875 234.753906 105.675781 C 234.753906 98.390625 231.722656 91.582031 225.988281 85.980469 Z M 201.9375 98.875 C 201.9375 98.925781 201.707031 103.953125 182.25 111.96875 C 179.277344 113.195312 176.089844 114.386719 172.773438 115.519531 L 172.773438 98.894531 C 182.765625 95.230469 192.429688 90.722656 201.664062 85.421875 C 201.933594 93.210938 201.9375 98.804688 201.9375 98.875 Z M 67.804688 108.078125 C 79.316406 110.636719 91.074219 111.898438 102.867188 111.835938 C 113.054688 111.824219 123.222656 110.96875 133.269531 109.277344 C 136.746094 108.695312 140.203125 108.027344 143.605469 107.296875 L 143.605469 123.234375 C 142.179688 123.507812 140.761719 123.765625 139.363281 124 C 126.171875 126.167969 112.832031 127.285156 99.464844 127.347656 C 84.945312 127.300781 73.824219 125.5625 67.082031 122.304688 C 67.164062 119.328125 67.390625 114.285156 67.804688 108.078125 Z M 150.898438 105.613281 C 155.824219 104.386719 160.707031 102.980469 165.480469 101.425781 L 165.480469 117.859375 C 160.714844 119.289062 155.796875 120.59375 150.898438 121.710938 Z M 81.015625 38.246094 C 83.875 33.941406 91.304688 28.308594 103.574219 25.402344 C 111.875 23.433594 124.808594 22.222656 141.5625 26.359375 C 111.503906 42.460938 93.445312 39.964844 93.144531 39.921875 C 91.164062 39.609375 89.308594 40.960938 88.984375 42.941406 C 88.660156 44.921875 89.988281 46.796875 91.964844 47.132812 C 93.496094 47.347656 95.039062 47.441406 96.585938 47.417969 C 105.082031 47.417969 124.835938 45.191406 152.769531 28.386719 C 177.808594 13.324219 185.640625 20.90625 189.40625 24.550781 C 192.464844 27.511719 194.976562 33.519531 196.199219 37.765625 C 198.605469 46.121094 200.367188 59.675781 201.296875 76.964844 L 201.304688 77.148438 L 201.300781 77.144531 C 190.738281 83.519531 179.546875 88.792969 167.910156 92.878906 C 160.859375 95.367188 153.683594 97.46875 146.40625 99.175781 C 141.742188 100.28125 136.917969 101.253906 132.0625 102.066406 C 102.253906 107.046875 79.402344 103.363281 68.34375 100.695312 C 70.097656 78.941406 73.851562 49.023438 81.011719 38.246094 Z M 206.613281 139.542969 C 191.117188 150.972656 167.847656 159.6875 139.328125 164.730469 C 87.242188 173.949219 46.671875 171.480469 30.800781 158.128906 C 25.75 153.878906 23.296875 148.679688 23.296875 142.226562 C 23.296875 116.914062 49.277344 98.589844 61.878906 91.191406 C 60.296875 107.269531 59.753906 121.046875 59.753906 124.46875 C 59.753906 125.75 60.425781 126.941406 61.523438 127.601562 C 70.277344 132.867188 85.007812 134.636719 100.171875 134.636719 C 113.703125 134.550781 127.207031 133.40625 140.5625 131.210938 C 155.503906 128.714844 172.125 124.050781 185.027344 118.730469 C 201.308594 112.019531 209.222656 105.53125 209.234375 98.878906 C 209.234375 98.796875 209.226562 92.347656 208.898438 83.621094 C 222.488281 89.035156 227.460938 98.324219 227.460938 105.671875 C 227.460938 117.769531 220.253906 129.480469 206.617188 139.542969 Z M 206.613281 139.542969 "/>
</g>
</svg>
