<?xml version="1.0" encoding="UTF-8" standalone="no"?>
<!-- Created with Inkscape (http://www.inkscape.org/) -->

<svg
   width="800.0px"
   height="600.0px"
   viewBox="0 0 800.0 600.0"
   version="1.1"
   id="SVGRoot"
   sodipodi:docname="desenho.svg"
   inkscape:version="1.1.1 (3bf5ae0d25, 2021-09-20)"
   xmlns:inkscape="http://www.inkscape.org/namespaces/inkscape"
   xmlns:sodipodi="http://sodipodi.sourceforge.net/DTD/sodipodi-0.dtd"
   xmlns="http://www.w3.org/2000/svg"
   xmlns:svg="http://www.w3.org/2000/svg">
  <sodipodi:namedview
     id="namedview99"
     pagecolor="#ffffff"
     bordercolor="#666666"
     borderopacity="1.0"
     inkscape:pageshadow="2"
     inkscape:pageopacity="0.0"
     inkscape:pagecheckerboard="0"
     inkscape:document-units="px"
     showgrid="false"
     inkscape:zoom="0.45611672"
     inkscape:cx="397.92446"
     inkscape:cy="108.52485"
     inkscape:window-width="1366"
     inkscape:window-height="697"
     inkscape:window-x="-8"
     inkscape:window-y="-8"
     inkscape:window-maximized="1"
     inkscape:current-layer="layer1" />
  <defs
     id="defs94" />
  <g
     inkscape:label="Camada 1"
     inkscape:groupmode="layer"
     id="layer1">
    <path
       d="m 723.14779,274.40305 c -14.4374,-14.05733 -33.6507,-25.30267 -55.8547,-32.75467 -3.1459,-56.38533 -8.8749,-99.31199 -17.0307,-127.59333 -2.3906,-8.29173 -11.4844,-36.587995 -27.948,-52.489325 -33.7546,-32.59867 -77.3333,-30.70267 -140.8533,6.31253 -69.14,-21.78666 -122.49999,-17.28666 -155.38666,-9.5156 -38.948,9.20827 -71.188,28.18267 -86.24,50.759995 -16.54133,24.82267 -29.57333,76.45333 -38.73466,153.45333 -24.88,13.08854 -48.30667,28.77067 -69.896,46.776 -52.333331,43.98933 -79.994671,93.98933 -79.994671,144.57333 0,27.52667 10.88547,50.61467 32.35467,68.62533 30.229331,25.364 80.896001,39.932 150.586661,43.292 10.19787,0.49479 20.76,0.73959 31.688,0.73959 54.40667,0 117.32267,-6.07294 184.06666,-17.85467 94.792,-16.72933 172.6267,-45.97333 225.0933,-84.584 49.864,-36.688 76.2187,-80.56266 76.2187,-126.88533 0,-23.24533 -9.7031,-44.97866 -28.0573,-62.85466 z m -76.9427,41.15066 c 0,0.16146 -0.7448,16.208 -63,41.79734 -9.5208,3.91666 -19.7187,7.70826 -30.3333,11.33333 v -53.05733 c 31.9786,-11.69787 62.9066,-26.088 92.4586,-43.00533 0.8594,24.85466 0.875,42.70799 0.875,42.93199 z m -429.22666,29.37467 c 36.83334,8.17187 74.464,12.19267 112.19333,11.9948 32.59867,-0.0364 65.14,-2.7708 97.28667,-8.16667 11.12506,-1.85413 22.19333,-3.9844 33.08266,-6.31773 v 50.86 c -4.56253,0.86979 -9.10413,1.69787 -13.584,2.44267 -42.208,6.91666 -84.89599,10.4896 -127.67199,10.68226 -46.464,-0.14062 -82.04667,-5.68746 -103.62533,-16.09333 0.27082,-9.5 0.99478,-25.59333 2.31773,-45.40133 z m 265.89333,-7.86453 c 15.77063,-3.91667 31.38533,-8.40107 46.66663,-13.36934 v 52.448 c -15.2506,4.57294 -30.9946,8.7292 -46.66663,12.29174 z m -223.62666,-215 c 9.15626,-13.73466 32.92666,-31.713325 72.188,-40.994655 26.568,-6.2812 67.95866,-10.15107 121.56799,3.05213 -96.19333,51.390665 -153.97333,43.431995 -154.93333,43.286665 h -0.005 c -6.33333,-0.98959 -12.276,3.31253 -13.31773,9.63546 -1.03646,6.32294 3.2188,12.30214 9.5364,13.38534 4.90106,0.68229 9.84893,0.98437 14.79733,0.90625 27.188,0 90.39067,-7.10413 179.78666,-60.734665 80.12527,-48.07866 105.18797,-23.87466 117.23467,-12.25 9.7917,9.45307 17.828,28.630665 21.74,42.177335 7.6926,26.66133 13.3333,69.92133 16.3066,125.10399 l 0.031,0.58334 -0.01,-0.005 c -33.8067,20.344 -69.6147,37.172 -106.86,50.21333 -22.552,7.94267 -45.5213,14.65067 -68.80263,20.09334 -14.92667,3.5312 -30.36934,6.63026 -45.90134,9.224 -95.39066,15.896 -168.51999,4.14066 -203.90666,-4.37494 5.60934,-69.42133 17.62534,-164.90666 40.54667,-199.30666 z m 401.91999,323.27999 c -49.584,36.48934 -124.0467,64.292 -215.32,80.396 -166.66666,29.416 -296.49332,21.536 -347.279991,-21.07333 -16.16133,-13.56267 -24.02133,-30.16133 -24.02133,-50.74933 0,-80.792 83.140001,-139.26667 123.464001,-162.88 -5.06254,51.30667 -6.79694,95.28667 -6.79694,106.19733 0,4.09894 2.15107,7.89587 5.66667,10.0052 28.016,16.80667 75.14533,22.448 123.67733,22.448 h -0.005 c 43.30266,-0.27083 86.51599,-3.92187 129.24533,-10.92706 47.81733,-7.9688 101.01063,-22.86 142.29333,-39.83334 52.0933,-21.412 77.4266,-42.13066 77.4586,-63.36 0,-0.25521 -0.016,-20.83866 -1.0677,-48.68799 43.484,17.276 59.4014,46.91733 59.4014,70.37466 0,38.604 -23.068,75.97867 -66.7027,108.09333 z"
       id="path64"
       style="stroke-width:1.33333" />
  </g>
</svg>
